<svg id="SvgjsSvg1000" data-name="Layer 1" xmlns="http://www.w3.org/2000/svg" width="114.63mm" height="97.12mm" viewBox="0 0 324.94 275.3">
  <defs>
    <style>
      .cls-1 {
        fill: #ff9700;
      }

      .cls-2 {
        fill: #006ecd;
      }

      .cls-3 {
        fill: #ef151e;
      }

      .cj {
        fill: #000000;
      }
      @media ( prefers-color-scheme: dark ) {
        .cj {
          fill: #ffffff;
        }
      }
    </style>
  </defs>
  <path class="cls-1" d="M778.81,196.2c-33.35-13.14-67-11.74-75.59,3.65s3.94,52.26,27.65,82.77,57.22,29.49,75.71-3.81c18.2-33.2,5.5-69.5-27.77-82.61" transform="translate(-489.96 -102.38)"></path>
  <path class="cls-2" d="M609.18,206.83c29.6,20.22,62.75,26.33,74.49,13.22s7.76-51.82-8.58-86.81-49.23-41.44-74.65-13.09c-25.1,28.33-20.77,66.53,8.74,86.68" transform="translate(-489.96 -102.38)"></path>
  <path class="cls-3" d="M715.25,313.23c-4.74-35.54-22.35-64.29-40-64.27s-43.75,28.86-58.87,64.43,2.07,64.33,40.16,64.29c37.86-.25,63.4-29,58.67-64.45" transform="translate(-489.96 -102.38)"></path>
  <path class="cj" d="M580.15,220.85c-6,0-10.09,3.72-10.09,9.26v5.57h14.33s.48,47.31-.06,52.26-1.8,13-10.67,17.26c-7.65,3.65-7.8,7.1-8.29,10.17-.63,4,.11,4.49,3,3.78,11.4-2.79,23.52-7.36,29.65-18.63,3.33-6.11,4.66-12.73,4.66-22.78V235.68c6.08-.07,10.46-4,10.46-9.26v-5.57Z" transform="translate(-489.96 -102.38)"></path>
  <path class="cj" d="M564.22,284.63a43.06,43.06,0,0,1-33.85,16.5c-23,0-40.41-17.65-40.41-41.05,0-23.71,17.37-41.59,40.41-41.59,21.94,0,33.55,16.49,33.55,16.49s-6.14,6.58-12,6.58c-2.87,0-5-1.33-7.51-2.87-3.33-2.05-7.1-4.38-14-4.38-13.1,0-23.76,11.56-23.76,25.77,0,13.92,10.66,25.24,23.76,25.24,7.78,0,11.44-2.22,14.66-4.19,2.29-1.41,4.46-2.72,7.59-2.72,6.64,0,11.6,6.22,11.6,6.22" transform="translate(-489.96 -102.38)"></path>
</svg>